<?xml version="1.0" standalone="no"?>
<!DOCTYPE svg PUBLIC "-//W3C//DTD SVG 20010904//EN"
 "http://www.w3.org/TR/2001/REC-SVG-20010904/DTD/svg10.dtd">
<svg version="1.0" xmlns="http://www.w3.org/2000/svg"
 width="1026.000000pt" height="1026.000000pt" viewBox="0 0 1026.000000 1026.000000"
 preserveAspectRatio="xMidYMid meet">
<metadata>
Created by potrace 1.14, written by Peter Selinger 2001-2017
</metadata>
<g transform="translate(0.000000,1026.000000) scale(0.100000,-0.100000)"
fill="#000000" stroke="none">
<path d="M2861 9159 c-50 -82 -91 -152 -91 -155 0 -3 -12 -24 -27 -47 -44 -67
-52 -80 -70 -114 -9 -18 -20 -33 -25 -33 -4 0 -8 -9 -8 -20 0 -11 -4 -20 -8
-20 -5 0 -15 -12 -23 -27 -8 -16 -58 -101 -111 -191 -54 -90 -98 -167 -98
-172 0 -4 -3 -10 -8 -12 -4 -1 -50 -75 -102 -163 -52 -88 -108 -180 -124 -205
-17 -25 -29 -45 -26 -45 2 0 -13 -26 -33 -58 -20 -31 -37 -60 -37 -63 0 -3
-16 -29 -35 -58 -19 -29 -35 -56 -35 -59 0 -7 -73 -125 -89 -143 -5 -7 -8 -14
-5 -17 2 -2 -2 -10 -11 -17 -8 -7 -15 -19 -15 -26 0 -8 -4 -14 -9 -14 -5 0
-12 -8 -15 -17 -3 -10 -12 -27 -19 -38 -6 -12 -32 -54 -57 -95 -24 -41 -48
-76 -52 -78 -5 -2 -8 -10 -8 -18 0 -8 -5 -20 -10 -27 -18 -20 -130 -209 -130
-218 0 -5 -5 -9 -10 -9 -6 0 -9 -3 -8 -7 1 -5 -5 -19 -14 -33 -49 -75 -288
-482 -288 -489 0 -5 -3 -11 -8 -13 -6 -2 -101 -156 -136 -222 -6 -12 -23 -39
-37 -61 -14 -22 -36 -60 -50 -85 -13 -25 -26 -47 -29 -50 -3 -3 -10 -14 -17
-25 -6 -11 -53 -90 -105 -175 -51 -85 -95 -159 -97 -165 -2 -5 -24 -40 -48
-78 -23 -37 -43 -71 -43 -76 0 -5 -6 -16 -14 -23 -7 -8 -23 -32 -35 -54 -22
-40 -48 -84 -82 -140 -21 -34 -24 -25 62 -175 27 -48 49 -91 49 -98 0 -6 4
-11 9 -11 5 0 15 -15 22 -32 7 -18 30 -61 51 -95 21 -35 38 -67 38 -72 0 -5 7
-14 15 -21 8 -7 12 -16 9 -21 -3 -5 0 -9 5 -9 6 0 11 -4 11 -9 0 -5 16 -38 36
-73 20 -34 50 -88 66 -118 17 -30 49 -86 72 -125 44 -76 66 -116 108 -194 15
-29 45 -82 67 -119 54 -93 79 -137 116 -207 18 -33 43 -78 55 -100 13 -22 43
-76 68 -120 47 -84 75 -134 112 -200 12 -22 26 -45 31 -51 5 -6 6 -14 2 -17
-3 -4 -1 -7 5 -7 6 0 14 -10 18 -22 3 -12 24 -50 45 -85 22 -35 39 -65 39 -67
0 -2 24 -46 53 -97 29 -52 67 -119 84 -149 16 -30 39 -71 50 -90 11 -19 35
-62 53 -95 18 -33 86 -154 150 -270 65 -115 130 -232 145 -260 15 -27 31 -54
35 -60 7 -10 48 -84 100 -180 54 -101 134 -241 152 -267 11 -16 16 -28 13 -28
-3 0 2 -12 13 -28 11 -15 35 -56 54 -92 20 -36 46 -83 58 -105 74 -128 92
-162 97 -177 3 -10 9 -18 13 -18 4 0 11 -11 14 -24 3 -14 12 -31 19 -38 6 -8
19 -27 27 -43 l15 -28 245 -3 c135 -2 425 -6 645 -9 220 -3 522 -8 672 -9 149
-2 276 -7 281 -10 6 -3 12 -2 14 3 2 5 24 6 51 1 26 -4 47 -3 47 1 0 5 10 5
22 0 13 -4 35 -5 50 -1 14 5 29 5 32 2 4 -3 104 -7 224 -8 659 -7 1085 -15
1093 -20 5 -3 9 0 9 7 0 10 3 10 11 2 8 -8 20 -8 35 -3 13 5 24 6 24 2 0 -4
91 -8 203 -9 618 -4 867 -9 867 -16 0 -5 5 -5 11 -2 17 11 59 13 59 3 0 -5 9
-4 19 2 13 7 22 7 26 0 4 -7 12 -7 25 0 13 7 21 7 25 0 4 -6 22 15 41 47 19
32 38 65 44 73 5 8 22 38 38 65 49 87 57 100 63 105 4 3 17 24 30 48 13 24 29
51 34 60 6 9 43 73 84 142 41 69 84 141 96 160 41 64 85 140 85 146 0 2 5 10
11 17 12 14 229 377 229 384 0 2 5 9 10 16 10 11 243 397 256 423 10 22 373
629 381 639 4 6 14 21 20 35 14 28 35 62 43 70 3 3 11 16 18 30 7 14 18 34 25
45 7 11 25 43 42 70 16 28 34 58 40 68 5 9 46 77 90 150 44 72 85 141 91 152
6 11 35 61 65 110 30 50 62 101 70 115 7 14 19 28 24 32 6 4 6 8 2 8 -5 0 1
14 13 30 l21 30 -768 0 -769 0 -64 -112 c-36 -62 -67 -117 -69 -123 -2 -5 -7
-12 -11 -15 -3 -3 -14 -21 -23 -40 -10 -19 -29 -53 -43 -75 -14 -22 -30 -52
-37 -67 -6 -16 -14 -28 -17 -28 -4 0 -17 -23 -30 -50 -13 -28 -27 -50 -32 -50
-4 0 -8 -5 -8 -11 0 -6 -24 -52 -54 -102 -29 -51 -63 -108 -73 -127 -33 -57
-83 -144 -93 -160 -42 -69 -150 -263 -150 -270 0 -4 -4 -10 -8 -12 -5 -1 -32
-46 -62 -98 -29 -52 -72 -126 -95 -165 -38 -63 -66 -113 -121 -215 -11 -19
-23 -39 -29 -45 -5 -6 -23 -37 -40 -69 -16 -32 -37 -65 -46 -74 -14 -16 -132
-17 -1607 -16 -974 0 -1596 4 -1601 10 -5 5 -51 81 -102 169 -50 88 -100 175
-110 193 -11 17 -29 49 -40 70 -12 20 -40 68 -62 106 -44 74 -68 117 -89 156
-7 14 -15 27 -18 30 -5 5 -16 24 -57 99 -14 25 -33 54 -42 65 -9 10 -15 20
-14 22 3 4 -14 34 -94 170 -33 57 -58 104 -55 104 4 0 2 4 -3 8 -6 4 -23 27
-37 52 -52 90 -72 126 -85 152 -8 15 -18 30 -24 33 -5 4 -9 15 -9 26 0 10 -4
19 -10 19 -5 0 -19 19 -30 43 -25 50 -65 118 -79 133 -5 7 -8 14 -5 17 2 2 -2
10 -11 17 -8 7 -15 16 -15 21 0 5 -18 38 -40 74 -22 36 -40 67 -40 70 0 5 -76
125 -89 141 -5 7 -8 14 -5 17 2 2 -2 10 -11 17 -8 7 -15 16 -15 20 0 5 -29 57
-64 117 -120 205 -150 258 -145 258 2 0 -2 7 -9 15 -24 28 -162 273 -162 288
0 9 18 46 40 83 22 37 40 72 40 78 0 6 4 11 8 11 4 0 20 24 35 53 16 28 36 66
46 82 22 37 55 95 89 155 13 25 28 50 32 55 4 6 58 98 120 205 62 107 122 211
133 230 11 19 33 60 50 90 16 30 36 62 43 71 8 8 14 19 14 22 0 4 18 37 40 73
22 36 40 70 40 75 0 5 5 9 10 9 6 0 9 3 8 8 -2 4 23 50 54 102 30 52 66 113
78 135 53 93 94 164 131 225 21 36 44 76 50 90 5 13 13 27 17 30 6 4 18 25 66
115 6 11 13 22 16 25 3 3 16 25 29 50 14 25 29 48 34 51 5 3 9 10 9 15 0 8 58
111 97 174 8 14 16 27 16 30 0 3 30 55 66 115 36 61 68 117 72 125 4 8 13 24
20 35 7 11 30 51 52 88 l39 67 1603 0 c1418 0 1603 -2 1603 -15 0 -8 3 -15 8
-15 4 0 13 -15 21 -32 8 -18 17 -35 21 -38 5 -5 29 -45 98 -170 14 -25 33 -57
43 -71 10 -15 23 -37 29 -50 6 -13 19 -37 30 -54 11 -16 28 -46 37 -65 10 -19
21 -36 26 -38 4 -2 7 -8 7 -12 0 -5 20 -43 45 -83 25 -41 45 -80 45 -86 0 -6
4 -11 9 -11 5 0 12 -9 16 -19 3 -11 30 -60 60 -110 30 -50 55 -93 55 -97 0 -3
8 -18 19 -32 10 -15 30 -48 45 -74 69 -125 81 -145 103 -178 12 -19 23 -40 23
-47 0 -7 5 -13 10 -13 6 0 10 -5 10 -11 0 -7 18 -40 40 -75 22 -35 40 -66 40
-69 0 -2 18 -34 40 -70 22 -36 40 -70 40 -75 0 -6 4 -10 8 -10 4 0 13 -12 20
-27 7 -16 18 -37 25 -48 6 -11 39 -68 71 -125 33 -58 64 -108 70 -112 17 -12
1466 -10 1466 2 0 5 -13 32 -30 60 -16 28 -30 55 -30 60 0 6 -4 10 -10 10 -5
0 -10 4 -10 9 0 8 -66 129 -190 346 -9 17 -33 59 -52 95 -20 36 -87 157 -150
270 -63 113 -132 237 -153 275 -21 39 -41 72 -44 75 -3 3 -14 21 -23 40 -10
19 -34 64 -54 100 -20 36 -45 81 -56 100 -10 19 -23 42 -28 50 -5 8 -38 67
-73 130 -80 144 -113 203 -145 260 -14 25 -30 54 -36 65 -6 11 -15 23 -21 27
-5 4 -6 8 -1 8 5 0 4 6 -2 13 -5 6 -19 28 -30 48 -42 76 -47 84 -61 102 -8 9
-11 17 -6 17 4 0 3 6 -3 13 -5 6 -22 35 -38 62 -15 28 -35 64 -45 80 -10 17
-34 62 -55 100 -20 39 -40 72 -43 75 -6 5 -14 19 -80 145 -20 38 -41 75 -48
82 -6 7 -15 23 -19 36 -4 12 -10 24 -14 27 -3 3 -14 19 -22 35 -23 44 -68 127
-132 239 -31 54 -56 102 -56 107 0 19 -36 22 -284 26 -520 7 -842 13 -876 15
-20 1 -44 -1 -54 -5 -10 -4 -23 -4 -29 0 -14 9 -87 10 -87 1 0 -3 -12 -3 -27
0 -16 4 -133 7 -260 7 -128 0 -233 4 -233 8 0 5 -5 5 -12 1 -6 -4 -37 -6 -67
-5 -31 2 -154 4 -273 4 -120 1 -218 6 -218 11 0 5 -6 4 -12 -1 -16 -13 -48
-13 -48 -1 0 5 -5 6 -11 2 -6 -4 -32 -6 -58 -6 -177 4 -899 14 -1098 15 -134
1 -243 5 -243 9 0 4 -13 3 -30 -2 -18 -5 -32 -5 -35 1 -4 5 -13 5 -24 -1 -10
-5 -21 -7 -24 -4 -2 3 -165 7 -360 9 l-356 5 -90 -151z"/>
<path d="M3714 7796 c-16 -28 -75 -132 -119 -208 -5 -10 -43 -74 -82 -143 -40
-69 -73 -129 -73 -135 0 -5 -4 -10 -10 -10 -5 0 -10 -6 -11 -12 0 -7 -13 -33
-29 -58 -16 -25 -39 -65 -52 -90 -13 -25 -29 -51 -36 -58 -7 -8 -19 -30 -28
-50 -8 -20 -18 -39 -22 -42 -4 -3 -14 -19 -23 -35 -8 -17 -78 -138 -154 -270
-76 -132 -143 -249 -149 -260 -6 -11 -14 -22 -17 -25 -3 -3 -12 -20 -20 -37
-8 -18 -17 -33 -21 -33 -5 0 -8 -6 -8 -13 0 -8 -9 -24 -20 -37 -11 -13 -20
-27 -20 -31 0 -5 -14 -32 -31 -61 -38 -63 -63 -107 -97 -168 -13 -25 -28 -49
-32 -55 -5 -5 -23 -37 -40 -70 -18 -33 -39 -67 -46 -76 -8 -8 -14 -18 -14 -21
0 -4 -23 -46 -51 -95 -55 -95 -64 -111 -159 -278 -35 -60 -66 -112 -69 -115
-3 -3 -15 -23 -26 -45 -11 -22 -23 -42 -27 -45 -10 -7 2 -50 13 -50 5 0 9 -4
9 -10 0 -5 23 -48 50 -96 28 -48 50 -91 50 -95 0 -5 5 -9 10 -9 6 0 10 -9 10
-20 0 -11 4 -20 8 -20 5 0 16 -15 25 -32 9 -18 30 -55 46 -83 16 -27 40 -68
52 -90 30 -55 41 -74 70 -120 13 -22 23 -43 21 -47 -1 -5 2 -8 7 -8 5 0 13 -9
16 -21 7 -20 43 -80 64 -105 5 -6 21 -33 35 -60 28 -52 70 -126 125 -221 19
-32 42 -71 51 -88 114 -197 159 -274 174 -297 10 -16 15 -28 12 -28 -4 0 2
-10 14 -22 11 -12 20 -25 20 -30 0 -4 22 -45 49 -90 27 -46 58 -99 69 -118 11
-19 52 -91 91 -158 39 -68 71 -128 71 -133 0 -5 3 -9 8 -9 4 0 12 -10 18 -23
18 -38 59 -112 65 -117 7 -6 29 -47 59 -107 11 -23 24 -43 28 -45 4 -2 16 -21
28 -43 29 -58 68 -127 77 -139 5 -6 16 -25 26 -41 l18 -31 1509 1 c830 0 1515
4 1522 8 6 5 20 25 31 45 10 20 35 66 56 102 21 36 51 88 67 115 16 28 36 66
46 85 9 19 25 44 35 54 9 11 17 25 17 32 0 7 6 19 13 26 6 7 21 30 31 51 11
20 23 37 28 37 5 0 7 4 4 9 -3 4 7 28 23 52 44 68 261 450 261 460 0 5 4 9 9
9 5 0 11 8 14 18 7 22 39 75 50 83 5 3 7 8 5 10 -1 2 8 22 21 44 14 22 38 65
54 95 17 30 36 60 43 68 8 7 14 17 14 22 0 5 20 43 45 84 25 42 45 81 45 85 0
5 4 11 8 13 5 2 22 28 38 58 17 30 41 72 53 92 l23 38 -664 0 -663 0 -40 -75
c-22 -41 -43 -75 -47 -75 -5 0 -8 -5 -8 -10 0 -14 -92 -174 -102 -178 -4 -2
-8 -10 -8 -17 0 -7 -22 -49 -48 -92 -27 -43 -66 -108 -86 -145 l-38 -68 -866
0 -867 0 -75 131 c-90 158 -98 172 -212 369 -50 85 -93 157 -97 160 -3 3 -17
28 -31 55 -13 28 -27 52 -30 55 -7 7 -29 42 -37 60 -3 8 -44 79 -90 157 -45
78 -83 146 -83 152 0 6 -4 11 -10 11 -5 0 -10 4 -10 9 0 8 -87 163 -151 267
l-19 31 35 58 c19 31 35 59 35 60 0 2 20 38 45 79 25 42 45 81 45 86 0 6 5 10
10 10 6 0 10 4 10 9 0 6 29 60 65 121 36 61 76 130 89 153 13 23 33 58 44 77
11 19 30 52 41 72 36 66 46 82 59 96 7 7 10 17 7 22 -3 5 -1 10 3 12 4 1 41
62 82 133 41 72 77 132 80 135 3 3 14 21 23 40 10 19 44 80 77 135 32 55 71
123 86 151 l27 51 868 0 868 0 16 -31 c9 -17 31 -56 50 -86 37 -60 46 -76 95
-163 17 -33 59 -104 91 -159 32 -55 59 -104 59 -109 0 -5 5 -9 12 -9 6 0 9 -3
6 -6 -4 -3 5 -22 18 -41 13 -20 24 -40 24 -44 0 -5 297 -9 661 -9 l661 0 -20
33 c-11 17 -29 48 -40 67 -10 19 -31 55 -46 80 -14 25 -34 61 -44 80 -9 19
-20 37 -23 40 -3 3 -19 30 -36 60 -16 30 -44 79 -62 108 -17 29 -31 57 -31 62
0 6 -4 10 -9 10 -5 0 -11 8 -15 18 -6 20 -50 98 -89 159 -15 24 -27 47 -27 52
0 5 -7 14 -15 21 -8 7 -12 16 -9 21 3 5 2 9 -3 9 -4 0 -13 10 -19 23 -6 12
-53 94 -104 182 -51 88 -106 185 -123 215 -17 30 -47 82 -67 115 -20 33 -39
67 -43 75 -4 8 -18 33 -32 55 -13 22 -29 49 -35 60 -6 11 -23 43 -40 70 -16
28 -44 76 -61 108 l-32 57 -1517 0 -1516 0 -20 -34z"/>
</g>
</svg>
