<svg width="192" height="192" viewBox="0 0 192 192" fill="none" xmlns="http://www.w3.org/2000/svg">
<g clip-path="url(#clip0_0_1)">
<path fill-rule="evenodd" clip-rule="evenodd" d="M9.73877 98.7791L52.9919 176.203L141.71 177.485L187.176 101.338L143.923 23.9147L55.2042 22.6326L9.73877 98.7791ZM38.0295 99.8134L68.2398 152.098H128.655L158.864 99.8134L128.655 47.5284H68.2398L38.0295 99.8134Z" fill="#00DD8A"/>
<path fill-rule="evenodd" clip-rule="evenodd" d="M26.7131 99.8093L62.6363 161.898H134.483L170.406 99.8093L134.483 37.7209H62.6363L26.7131 99.8093ZM38.0294 99.8134L68.2398 152.098H128.654L158.864 99.8134L128.654 47.5284H68.2398L38.0294 99.8134Z" fill="#00C074"/>
<path fill-rule="evenodd" clip-rule="evenodd" d="M41.4243 100.108L69.9949 149.67H127.142L155.712 100.108L127.142 50.5461H69.9949L41.4243 100.108ZM65.5657 99.9908L81.8989 128.312H114.56L130.888 99.9908L114.56 71.6699H81.8989L65.5657 99.9908Z" fill="#0087EF"/>
<path fill-rule="evenodd" clip-rule="evenodd" d="M56.5127 99.8617L77.4641 136.352H119.367L140.318 99.8617L119.367 63.3712H77.4641L56.5127 99.8617ZM65.5657 99.9907L81.8989 128.312H114.56L130.888 99.9907L114.56 71.6698H81.8989L65.5657 99.9907Z" fill="#1671AF"/>
</g>
<g clip-path="url(#clip1_0_1)">
<path fill-rule="evenodd" clip-rule="evenodd" d="M9.73853 98.7791L52.9916 176.202L141.71 177.485L187.176 101.338L143.923 23.9146L55.204 22.6324L9.73853 98.7791ZM38.0293 99.8132L68.2396 152.098H128.654L158.864 99.8132L128.654 47.5283H68.2396L38.0293 99.8132Z" fill="#00DD8A"/>
<path fill-rule="evenodd" clip-rule="evenodd" d="M26.7129 99.8091L62.6361 161.897H134.482L170.406 99.8091L134.482 37.7208H62.6361L26.7129 99.8091ZM38.0292 99.8132L68.2395 152.098H128.654L158.864 99.8132L128.654 47.5283H68.2395L38.0292 99.8132Z" fill="#00C074"/>
<path fill-rule="evenodd" clip-rule="evenodd" d="M41.4241 100.108L69.9947 149.67H127.142L155.712 100.108L127.142 50.546H69.9947L41.4241 100.108ZM65.5655 99.9907L81.8987 128.312H114.56L130.888 99.9907L114.56 71.6698H81.8987L65.5655 99.9907Z" fill="#0087EF"/>
<path fill-rule="evenodd" clip-rule="evenodd" d="M56.5127 99.8616L77.464 136.352H119.367L140.318 99.8616L119.367 63.3711H77.464L56.5127 99.8616ZM65.5657 99.9907L81.8989 128.312H114.56L130.888 99.9907L114.56 71.6697H81.8989L65.5657 99.9907Z" fill="#1671AF"/>
</g>
<g clip-path="url(#clip2_0_1)">
<path fill-rule="evenodd" clip-rule="evenodd" d="M9.36157 98.0251L52.6147 175.448L141.333 176.731L186.799 100.584L143.546 23.1606L54.827 21.8784L9.36157 98.0251ZM37.6523 99.0591L67.8626 151.344H128.277L158.487 99.0591L128.277 46.7743H67.8626L37.6523 99.0591Z" fill="#00DD8A"/>
<path fill-rule="evenodd" clip-rule="evenodd" d="M26.3359 99.0551L62.2591 161.143H134.105L170.029 99.0551L134.105 36.9668H62.2591L26.3359 99.0551ZM37.6522 99.0591L67.8626 151.344H128.277L158.487 99.0591L128.277 46.7742H67.8626L37.6522 99.0591Z" fill="#00C074"/>
<path fill-rule="evenodd" clip-rule="evenodd" d="M41.0471 99.3536L69.6177 148.915H126.765L155.335 99.3536L126.765 49.7919H69.6177L41.0471 99.3536ZM65.1885 99.2366L81.5217 127.558H114.183L130.511 99.2366L114.183 70.9156H81.5217L65.1885 99.2366Z" fill="#0087EF"/>
<path fill-rule="evenodd" clip-rule="evenodd" d="M56.1355 99.1076L77.0869 135.598H118.99L139.941 99.1076L118.99 62.6171H77.0869L56.1355 99.1076ZM65.1885 99.2367L81.5217 127.558H114.183L130.511 99.2367L114.183 70.9157H81.5217L65.1885 99.2367Z" fill="#1671AF"/>
</g>
<path d="M97.7282 95.5591C97.2336 96.1392 96.499 96.4919 95.6372 96.4919C93.9698 96.4919 92.7887 95.1334 92.7887 93.4681C92.7887 91.8007 93.9698 90.4422 95.6372 90.4422C96.499 90.4422 97.2336 90.797 97.7282 91.375L99.0637 90.052C98.1894 89.1776 96.9727 88.6329 95.6372 88.6329C92.966 88.6329 90.802 90.797 90.802 93.4681C90.802 96.1392 92.966 98.3012 95.6372 98.3012C96.9727 98.3012 98.1894 97.7565 99.0637 96.8821L97.7282 95.5591Z" fill="#1671AF" fill-opacity="0.4"/>
<path d="M105.138 88.6204C102.467 88.6204 100.303 90.7844 100.303 93.4555C100.303 96.1267 102.467 98.2886 105.138 98.2886C107.809 98.2886 109.971 96.1267 109.971 93.4555C109.971 90.7844 107.809 88.6204 105.138 88.6204ZM105.138 90.4296C106.816 90.4296 107.997 91.7882 107.997 93.4555C107.997 95.1208 106.816 96.4814 105.138 96.4814C103.471 96.4814 102.29 95.1208 102.29 93.4555C102.29 91.7882 103.471 90.4296 105.138 90.4296Z" fill="#1671AF" fill-opacity="0.4"/>
<path d="M119.083 88.7394H117.144L115.145 93.5015L113.161 88.7394H111.209V98.1948H112.983V92.9715L114.177 95.82H116.116L117.322 92.9464V98.1948H119.083V88.7394Z" fill="#1671AF" fill-opacity="0.4"/>
<path d="M124.811 88.7394H120.734V98.1948H122.507V95.8429H124.811C127.305 95.8429 128.121 94.2465 128.121 92.2849C128.121 90.3233 127.224 88.7394 124.811 88.7394ZM126.017 93.6914C125.817 93.9523 125.414 94.0691 124.811 94.0691H122.507V90.5007H124.811C125.688 90.5007 125.924 90.797 126.005 90.8909C126.23 91.1747 126.349 91.6714 126.349 92.2849C126.349 92.936 126.23 93.4326 126.017 93.6914Z" fill="#1671AF" fill-opacity="0.4"/>
<path d="M135.258 90.4881V88.7268H129.773V98.1947H135.258V96.4334H131.547V94.3299H133.757V92.5686H131.547V90.4881H135.258Z" fill="#1671AF" fill-opacity="0.4"/>
<path d="M144.014 88.7394H136.911V90.5007H139.582V98.1948H141.343V90.5007H144.014V88.7394Z" fill="#1671AF" fill-opacity="0.4"/>
<path d="M151.151 90.4881V88.7268H145.667V98.1947H151.151V96.4334H147.441V94.3299H149.65V92.5686H147.441V90.4881H151.151Z" fill="#1671AF" fill-opacity="0.4"/>
<path d="M98.4179 95.2944C97.9233 95.8746 97.1887 96.2273 96.3269 96.2273C94.6595 96.2273 93.4784 94.8687 93.4784 93.2035C93.4784 91.5361 94.6595 90.1776 96.3269 90.1776C97.1887 90.1776 97.9233 90.5323 98.4179 91.1104L99.7534 89.7873C98.879 88.9129 97.6624 88.3683 96.3269 88.3683C93.6557 88.3683 91.4917 90.5323 91.4917 93.2035C91.4917 95.8746 93.6557 98.0365 96.3269 98.0365C97.6624 98.0365 98.879 97.4919 99.7534 96.6175L98.4179 95.2944Z" fill="#0087EF"/>
<path d="M105.828 88.3557C103.156 88.3557 100.992 90.5197 100.992 93.1909C100.992 95.862 103.156 98.024 105.828 98.024C108.499 98.024 110.661 95.862 110.661 93.1909C110.661 90.5197 108.499 88.3557 105.828 88.3557ZM105.828 90.165C107.505 90.165 108.687 91.5235 108.687 93.1909C108.687 94.8562 107.505 96.2168 105.828 96.2168C104.16 96.2168 102.979 94.8562 102.979 93.1909C102.979 91.5235 104.16 90.165 105.828 90.165Z" fill="#0087EF"/>
<path d="M119.773 88.4746H117.834L115.835 93.2367L113.85 88.4746H111.899V97.93H113.673V92.7067L114.866 95.5552H116.805L118.011 92.6816V97.93H119.773V88.4746Z" fill="#0087EF"/>
<path d="M125.501 88.4746H121.423V97.93H123.197V95.5782H125.501C127.995 95.5782 128.811 93.9817 128.811 92.0201C128.811 90.0585 127.913 88.4746 125.501 88.4746ZM126.707 93.4266C126.507 93.6875 126.104 93.8044 125.501 93.8044H123.197V90.2359H125.501C126.377 90.2359 126.613 90.5322 126.695 90.6261C126.92 90.9099 127.039 91.4066 127.039 92.0201C127.039 92.6712 126.92 93.1679 126.707 93.4266Z" fill="#0087EF"/>
<path d="M135.947 90.2234V88.4622H130.463V97.9301H135.947V96.1688H132.237V94.0653H134.447V92.304H132.237V90.2234H135.947Z" fill="#0087EF"/>
<path d="M144.704 88.4746H137.6V90.2359H140.271V97.93H142.033V90.2359H144.704V88.4746Z" fill="#0087EF"/>
<path d="M151.841 90.2234V88.4622H146.356V97.9301H151.841V96.1688H148.13V94.0653H150.34V92.304H148.13V90.2234H151.841Z" fill="#0087EF"/>
<path d="M93.7209 108.831C93.2243 109.411 92.4918 109.766 91.63 109.766C89.9647 109.766 88.7835 108.408 88.7835 106.74C88.7835 105.075 89.9647 103.716 91.63 103.716C92.4918 103.716 93.2243 104.071 93.7209 104.649L95.0565 103.326C94.1821 102.452 92.9655 101.909 91.63 101.909C88.9588 101.909 86.7969 104.071 86.7969 106.74C86.7969 109.411 88.9588 111.573 91.63 111.573C92.9655 111.573 94.1821 111.031 95.0565 110.156L93.7209 108.831Z" fill="#00DD8A" fill-opacity="0.4"/>
<path d="M101.126 101.897C98.4547 101.897 96.2927 104.059 96.2927 106.73C96.2927 109.399 98.4547 111.561 101.126 111.561C103.795 111.561 105.959 109.399 105.959 106.73C105.959 104.059 103.795 101.897 101.126 101.897ZM101.126 103.704C102.804 103.704 103.985 105.062 103.985 106.73C103.985 108.395 102.804 109.754 101.126 109.754C99.4605 109.754 98.2773 108.395 98.2773 106.73C98.2773 105.062 99.4605 103.704 101.126 103.704Z" fill="#00DD8A" fill-opacity="0.4"/>
<path d="M115.063 102.016H113.126L111.129 106.776L109.145 102.016H107.194V111.467H108.967V106.244L110.159 109.092H112.098L113.302 106.221V111.467H115.063V102.016Z" fill="#00DD8A" fill-opacity="0.4"/>
<path d="M120.791 102.016H116.713V111.467H118.487V109.115H120.791C123.282 109.115 124.098 107.521 124.098 105.559C124.098 103.597 123.201 102.016 120.791 102.016ZM121.995 106.966C121.794 107.224 121.392 107.343 120.791 107.343H118.487V103.775H120.791C121.665 103.775 121.901 104.071 121.984 104.165C122.207 104.449 122.326 104.946 122.326 105.559C122.326 106.208 122.207 106.705 121.995 106.966Z" fill="#00DD8A" fill-opacity="0.4"/>
<path d="M130.168 101.897C127.497 101.897 125.335 104.059 125.335 106.73C125.335 109.399 127.497 111.561 130.168 111.561C132.837 111.561 135.001 109.399 135.001 106.73C135.001 104.059 132.837 101.897 130.168 101.897ZM130.168 103.704C131.846 103.704 133.027 105.062 133.027 106.73C133.027 108.395 131.846 109.754 130.168 109.754C128.503 109.754 127.319 108.395 127.319 106.73C127.319 105.062 128.503 103.704 130.168 103.704Z" fill="#00DD8A" fill-opacity="0.4"/>
<path d="M140.159 111.586H140.372C142.404 111.573 143.562 110.25 143.644 108.938C143.74 107.569 142.698 106.033 140.194 105.714H140.171C139.261 105.607 138.316 105.158 138.362 104.497C138.398 104.023 139.107 103.587 140.395 103.645H140.43C141.14 103.645 141.991 103.988 142.427 104.307L143.443 102.89C142.769 102.404 141.588 101.909 140.455 101.909C137.949 101.778 136.732 103.055 136.626 104.355C136.567 105.11 136.887 105.855 137.5 106.421C138.103 106.978 138.965 107.331 139.981 107.437C141.365 107.627 141.943 108.266 141.908 108.821C141.872 109.328 141.33 109.837 140.349 109.837H140.288C140.278 109.837 138.99 109.908 138.197 109.257C137.997 109.105 137.832 108.915 137.678 108.689L136.236 109.67C136.473 110.025 136.768 110.344 137.1 110.615C138.174 111.49 139.591 111.586 140.159 111.586Z" fill="#00DD8A" fill-opacity="0.4"/>
<path d="M150.777 103.762V102.003H145.294V111.467H150.777V109.706H147.068V107.604H149.276V105.843H147.068V103.762H150.777Z" fill="#00DD8A" fill-opacity="0.4"/>
<path d="M94.4106 108.567C93.914 109.147 93.1815 109.501 92.3197 109.501C90.6544 109.501 89.4732 108.143 89.4732 106.476C89.4732 104.81 90.6544 103.452 92.3197 103.452C93.1815 103.452 93.914 103.806 94.4106 104.385L95.7462 103.061C94.8718 102.187 93.6552 101.645 92.3197 101.645C89.6485 101.645 87.4866 103.806 87.4866 106.476C87.4866 109.147 89.6485 111.309 92.3197 111.309C93.6552 111.309 94.8718 110.766 95.7462 109.892L94.4106 108.567Z" fill="#00C074"/>
<path d="M101.816 101.632C99.1444 101.632 96.9824 103.794 96.9824 106.465C96.9824 109.134 99.1444 111.296 101.816 111.296C104.485 111.296 106.649 109.134 106.649 106.465C106.649 103.794 104.485 101.632 101.816 101.632ZM101.816 103.439C103.493 103.439 104.674 104.798 104.674 106.465C104.674 108.13 103.493 109.489 101.816 109.489C100.15 109.489 98.967 108.13 98.967 106.465C98.967 104.798 100.15 103.439 101.816 103.439Z" fill="#00C074"/>
<path d="M115.753 101.751H113.816L111.819 106.511L109.834 101.751H107.883V111.202H109.657V105.979L110.849 108.827H112.787L113.991 105.956V111.202H115.753V101.751Z" fill="#00C074"/>
<path d="M121.48 101.751H117.403V111.202H119.176V108.85H121.48C123.972 108.85 124.788 107.256 124.788 105.294C124.788 103.333 123.891 101.751 121.48 101.751ZM122.684 106.701C122.484 106.96 122.081 107.079 121.48 107.079H119.176V103.51H121.48C122.355 103.51 122.59 103.806 122.674 103.9C122.897 104.184 123.016 104.681 123.016 105.294C123.016 105.943 122.897 106.44 122.684 106.701Z" fill="#00C074"/>
<path d="M130.857 101.632C128.186 101.632 126.024 103.794 126.024 106.465C126.024 109.134 128.186 111.296 130.857 111.296C133.527 111.296 135.691 109.134 135.691 106.465C135.691 103.794 133.527 101.632 130.857 101.632ZM130.857 103.439C132.535 103.439 133.716 104.798 133.716 106.465C133.716 108.13 132.535 109.489 130.857 109.489C129.192 109.489 128.009 108.13 128.009 106.465C128.009 104.798 129.192 103.439 130.857 103.439Z" fill="#00C074"/>
<path d="M140.849 111.321H141.061C143.094 111.309 144.252 109.986 144.334 108.673C144.43 107.304 143.388 105.768 140.884 105.449H140.861C139.951 105.342 139.006 104.894 139.052 104.232C139.087 103.758 139.797 103.322 141.084 103.381H141.12C141.829 103.381 142.681 103.723 143.117 104.042L144.133 102.625C143.459 102.139 142.278 101.644 141.145 101.644C138.639 101.513 137.422 102.79 137.316 104.09C137.257 104.846 137.576 105.591 138.19 106.156C138.793 106.713 139.655 107.066 140.671 107.172C142.055 107.362 142.633 108.001 142.597 108.556C142.562 109.063 142.019 109.572 141.038 109.572H140.978C140.967 109.572 139.68 109.643 138.887 108.992C138.687 108.84 138.522 108.65 138.367 108.425L136.925 109.405C137.163 109.76 137.457 110.079 137.789 110.351C138.864 111.225 140.281 111.321 140.849 111.321Z" fill="#00C074"/>
<path d="M151.466 103.498V101.738H145.984V111.202H151.466V109.441H147.758V107.339H149.966V105.578H147.758V103.498H151.466Z" fill="#00C074"/>
<path fill-rule="evenodd" clip-rule="evenodd" d="M165.397 102.813L175.947 113.377C176.054 113.487 176.2 113.552 176.363 113.552C176.687 113.552 176.948 113.29 176.948 112.967H176.945V87.2665C176.948 87.2496 176.948 87.2328 176.948 87.2159C176.948 86.8927 176.687 86.6313 176.363 86.6313H173.134V103.252C173.134 103.575 172.873 103.836 172.55 103.836C172.387 103.836 172.241 103.769 172.134 103.659L165.397 96.9135V102.813Z" fill="#00C074"/>
<path fill-rule="evenodd" clip-rule="evenodd" d="M153.308 112.028V86.3278C153.308 86.0046 153.569 85.7433 153.893 85.7433C154.056 85.7433 154.202 85.8107 154.309 85.9175L164.847 96.4694V102.372L158.119 95.6358C158.013 95.529 157.867 95.4616 157.704 95.4616C157.38 95.4616 157.119 95.7229 157.119 96.0461V112.666H153.893C153.569 112.666 153.308 112.405 153.308 112.082V112.028Z" fill="#0087EF"/>
<defs>
<clipPath id="clip0_0_1">
<rect width="232.738" height="84.1178" fill="white" transform="translate(-31)"/>
</clipPath>
<clipPath id="clip1_0_1">
<rect width="131.646" height="30.9312" fill="white" transform="translate(-21.5698 84.1177)"/>
</clipPath>
<clipPath id="clip2_0_1">
<rect width="235.756" height="76.9508" fill="white" transform="translate(-21.9468 115.049)"/>
</clipPath>
</defs>
</svg>
