<svg width="58" height="64" viewBox="0 0 58 64" fill="none" xmlns="http://www.w3.org/2000/svg">
<g clip-path="url(#clip0_79_2)">
<path d="M58.3135 35.2396C58.375 42.3469 55.773 49.2195 51.0199 54.504C46.2669 59.7884 39.7073 63.1015 32.6333 63.7907C32.6333 63.7907 14.1973 64.2617 8.0968 63.7907C6.97972 63.6566 5.91804 63.229 5.01982 62.5514C4.12161 61.8738 3.41892 60.9704 2.98322 59.933C3.8414 60.3111 4.76069 60.5314 5.69703 60.5834C7.6931 60.7629 11.1022 60.8526 15.857 60.8526C22.8322 60.8526 30.4353 60.6507 30.5026 60.6507H30.6372C38.2372 60.0053 45.3045 56.4837 50.3964 50.8047C54.7637 45.9917 57.53 39.942 58.3135 33.4902V35.2396Z" fill="#273339"/>
<path d="M56.0705 28.9822C56.1254 36.0927 53.5145 42.9657 48.7527 48.2464C43.9909 53.5272 37.4236 56.8325 30.3454 57.5109C30.3454 57.5109 11.9094 57.9819 5.80895 57.5109C4.16138 57.2553 2.66319 56.4087 1.5942 55.1292C0.525223 53.8497 -0.0414471 52.2249 5.29196e-05 50.5581V7.11471C-0.0205171 5.43934 0.572513 3.81432 1.66732 2.54599C2.76214 1.27765 4.28311 0.453634 5.94352 0.229266C12.0664 -0.286582 30.4799 0.229266 30.4799 0.229266C37.5729 0.942345 44.1394 4.29329 48.8789 9.61839C53.6183 14.9435 56.185 21.8544 56.0705 28.9822Z" fill="#273339"/>
</g>
<defs>
<clipPath id="clip0_79_2">
<rect width="308" height="64" fill="white" transform="translate(-3)"/>
</clipPath>
</defs>
</svg>
