<svg width="300" height="120" viewBox="0 0 300 120" fill="none" xmlns="http://www.w3.org/2000/svg">
<path d="M163.436 18.1132C162.391 19.3392 160.839 20.0844 159.018 20.0844C155.494 20.0844 152.998 17.2136 152.998 13.6946C152.998 10.1712 155.494 7.30036 159.018 7.30036C160.839 7.30036 162.391 8.05003 163.436 9.27155L166.259 6.47573C164.411 4.62801 161.84 3.47705 159.018 3.47705C153.373 3.47705 148.8 8.05003 148.8 13.6946C148.8 19.3392 153.373 23.9077 159.018 23.9077C161.84 23.9077 164.411 22.7568 166.259 20.9091L163.436 18.1132Z" fill="#0087EF"/>
<path d="M179.095 3.45056C173.45 3.45056 168.877 8.02354 168.877 13.6681C168.877 19.3127 173.45 23.8813 179.095 23.8813C184.739 23.8813 189.308 19.3127 189.308 13.6681C189.308 8.02354 184.739 3.45056 179.095 3.45056ZM179.095 7.27387C182.64 7.27387 185.136 10.1447 185.136 13.6681C185.136 17.1871 182.64 20.0623 179.095 20.0623C175.571 20.0623 173.075 17.1871 173.075 13.6681C173.075 10.1447 175.571 7.27387 179.095 7.27387Z" fill="#0087EF"/>
<path d="M208.563 3.70203H204.466L200.241 13.7652L196.047 3.70203H191.924V23.6829H195.673V12.6451L198.195 18.6645H202.292L204.841 12.5922V23.6829H208.563V3.70203Z" fill="#0087EF"/>
<path d="M220.668 3.70203H212.051V23.6829H215.799V18.713H220.668C225.938 18.713 227.662 15.3395 227.662 11.1943C227.662 7.04908 225.766 3.70203 220.668 3.70203ZM223.217 14.1665C222.793 14.7178 221.942 14.9647 220.668 14.9647H215.799V7.42391H220.668C222.52 7.42391 223.018 8.05011 223.19 8.24855C223.666 8.84828 223.918 9.89782 223.918 11.1943C223.918 12.5702 223.666 13.6197 223.217 14.1665Z" fill="#0087EF"/>
<path d="M242.743 7.39742V3.67554H231.154V23.6829H242.743V19.961H234.902V15.5159H239.572V11.794H234.902V7.39742H242.743Z" fill="#0087EF"/>
<path d="M261.247 3.70203H246.236V7.42391H251.88V23.6829H255.602V7.42391H261.247V3.70203Z" fill="#0087EF"/>
<path d="M276.328 7.39742V3.67554H264.739V23.6829H276.328V19.961H268.488V15.5159H273.158V11.794H268.488V7.39742H276.328Z" fill="#0087EF"/>
<path d="M163.432 108.7C162.383 109.926 160.835 110.675 159.013 110.675C155.494 110.675 152.998 107.805 152.998 104.281C152.998 100.762 155.494 97.8914 159.013 97.8914C160.835 97.8914 162.383 98.6411 163.432 99.8626L166.254 97.0668C164.407 95.2191 161.836 94.0725 159.013 94.0725C153.369 94.0725 148.8 98.6411 148.8 104.281C148.8 109.926 153.369 114.494 159.013 114.494C161.836 114.494 164.407 113.348 166.254 111.5L163.432 108.7Z" fill="#00C074"/>
<path d="M179.08 94.046C173.435 94.046 168.866 98.6146 168.866 104.259C168.866 109.899 173.435 114.468 179.08 114.468C184.72 114.468 189.293 109.899 189.293 104.259C189.293 98.6146 184.72 94.046 179.08 94.046ZM179.08 97.8649C182.625 97.8649 185.121 100.736 185.121 104.259C185.121 107.778 182.625 110.649 179.08 110.649C175.561 110.649 173.06 107.778 173.06 104.259C173.06 100.736 175.561 97.8649 179.08 97.8649Z" fill="#00C074"/>
<path d="M208.532 94.2972H204.439L200.219 104.356L196.026 94.2972H191.902V114.269H195.651V103.232L198.169 109.251H202.265L204.81 103.183V114.269H208.532V94.2972Z" fill="#00C074"/>
<path d="M220.635 94.2972H212.018V114.269H215.766V109.299H220.635C225.9 109.299 227.624 105.93 227.624 101.785C227.624 97.6399 225.728 94.2972 220.635 94.2972ZM223.179 104.757C222.756 105.304 221.905 105.556 220.635 105.556H215.766V98.0147H220.635C222.482 98.0147 222.981 98.6409 223.157 98.8394C223.629 99.4391 223.88 100.489 223.88 101.785C223.88 103.157 223.629 104.206 223.179 104.757Z" fill="#00C074"/>
<path d="M240.45 94.046C234.806 94.046 230.237 98.6146 230.237 104.259C230.237 109.899 234.806 114.468 240.45 114.468C246.091 114.468 250.664 109.899 250.664 104.259C250.664 98.6146 246.091 94.046 240.45 94.046ZM240.45 97.8649C243.996 97.8649 246.492 100.736 246.492 104.259C246.492 107.778 243.996 110.649 240.45 110.649C236.931 110.649 234.431 107.778 234.431 104.259C234.431 100.736 236.931 97.8649 240.45 97.8649Z" fill="#00C074"/>
<path d="M261.563 114.521H262.013C266.308 114.494 268.756 111.698 268.928 108.925C269.131 106.032 266.93 102.786 261.638 102.111H261.59C259.667 101.886 257.67 100.938 257.767 99.5404C257.842 98.5394 259.341 97.6177 262.062 97.7412H262.137C263.636 97.7412 265.435 98.4644 266.357 99.1391L268.504 96.1449C267.08 95.1174 264.584 94.0722 262.19 94.0722C256.893 93.7944 254.322 96.4932 254.098 99.2406C253.974 100.837 254.649 102.411 255.945 103.606C257.22 104.784 259.041 105.529 261.189 105.754C264.112 106.155 265.334 107.505 265.259 108.678C265.184 109.749 264.037 110.825 261.965 110.825H261.837C261.815 110.825 259.094 110.975 257.418 109.599C256.995 109.277 256.646 108.876 256.32 108.4L253.273 110.472C253.776 111.222 254.397 111.897 255.099 112.47C257.37 114.318 260.364 114.521 261.563 114.521Z" fill="#00C074"/>
<path d="M284 97.9884V94.2709H272.415V114.269H284V110.548H276.164V106.107H280.829V102.385H276.164V97.9884H284Z" fill="#00C074"/>
<path fill-rule="evenodd" clip-rule="evenodd" d="M216.069 66.6152L238.365 88.9401C238.59 89.1717 238.899 89.3083 239.244 89.3083C239.927 89.3083 240.479 88.756 240.479 88.0731H240.473V33.7634C240.479 33.7278 240.479 33.6922 240.479 33.6565C240.479 32.9736 239.927 32.4213 239.244 32.4213H232.42V67.5432C232.42 68.2262 231.868 68.7785 231.185 68.7785C230.84 68.7785 230.531 68.6359 230.306 68.4043L216.069 54.149V66.6152Z" fill="#00C074"/>
<path fill-rule="evenodd" clip-rule="evenodd" d="M190.524 86.0894V31.7798C190.524 31.0969 191.076 30.5446 191.759 30.5446C192.104 30.5446 192.412 30.6871 192.638 30.9128L214.907 53.2105V65.6835L200.691 51.4491C200.465 51.2235 200.156 51.0809 199.812 51.0809C199.129 51.0809 198.577 51.6332 198.577 52.3162V87.4375H191.759C191.076 87.4375 190.524 86.8852 190.524 86.2023V86.0894Z" fill="#0087EF"/>
<g clip-path="url(#clip0_25_1323)">
<path fill-rule="evenodd" clip-rule="evenodd" d="M13.8687 59.4225L45.5808 116.187L110.627 117.128L143.961 61.2984L112.249 4.53369L47.2028 3.59363L13.8687 59.4225ZM34.6107 60.1808L56.7602 98.5147H101.055L123.204 60.1808L101.055 21.8467H56.7602L34.6107 60.1808Z" fill="#00DD8A"/>
<path fill-rule="evenodd" clip-rule="evenodd" d="M26.314 60.1778L52.652 105.699H105.328L131.666 60.1778L105.328 14.6561H52.652L26.314 60.1778ZM34.6108 60.1808L56.7603 98.5147H101.055L123.204 60.1808L101.055 21.8467H56.7603L34.6108 60.1808Z" fill="#00C074"/>
<path fill-rule="evenodd" clip-rule="evenodd" d="M37.0999 60.3966L58.0471 96.7342H99.9459L120.893 60.3966L99.9459 24.0592H58.0471L37.0999 60.3966ZM54.7998 60.3108L66.7749 81.075H90.7212L102.692 60.3108L90.7212 39.5466H66.7749L54.7998 60.3108Z" fill="#0087EF"/>
<path fill-rule="evenodd" clip-rule="evenodd" d="M48.1621 60.2162L63.5231 86.9702H94.2452L109.606 60.2162L94.2452 33.4623H63.5231L48.1621 60.2162ZM54.7996 60.3108L66.7747 81.075H90.721L102.692 60.3108L90.721 39.5466H66.7747L54.7996 60.3108Z" fill="#1671AF"/>
</g>
<g clip-path="url(#clip1_25_1323)">
<path fill-rule="evenodd" clip-rule="evenodd" d="M13.8687 59.4225L45.5808 116.187L110.627 117.127L143.961 61.2985L112.249 4.53366L47.2028 3.59363L13.8687 59.4225ZM34.6107 60.1807L56.7602 98.5146H101.055L123.204 60.1807L101.055 21.8467H56.7602L34.6107 60.1807Z" fill="#00DD8A"/>
<path fill-rule="evenodd" clip-rule="evenodd" d="M26.314 60.1778L52.652 105.699H105.328L131.666 60.1778L105.328 14.6561H52.652L26.314 60.1778ZM34.6108 60.1807L56.7603 98.5147H101.055L123.204 60.1807L101.055 21.8467H56.7603L34.6108 60.1807Z" fill="#00C074"/>
<path fill-rule="evenodd" clip-rule="evenodd" d="M37.0999 60.3967L58.0471 96.7342H99.9459L120.893 60.3967L99.9459 24.0592H58.0471L37.0999 60.3967ZM54.7998 60.3109L66.7749 81.075H90.7212L102.692 60.3109L90.7212 39.5466H66.7749L54.7998 60.3109Z" fill="#0087EF"/>
<path fill-rule="evenodd" clip-rule="evenodd" d="M48.1621 60.2162L63.5231 86.9702H94.2452L109.606 60.2162L94.2452 33.4623H63.5231L48.1621 60.2162ZM54.7996 60.3109L66.7747 81.075H90.721L102.692 60.3109L90.721 39.5466H66.7747L54.7996 60.3109Z" fill="#1671AF"/>
</g>
<g clip-path="url(#clip2_25_1323)">
<path fill-rule="evenodd" clip-rule="evenodd" d="M13.5923 58.8697L45.3044 115.635L110.351 116.575L143.685 60.7456L111.973 3.9808L46.9265 3.04077L13.5923 58.8697ZM34.3344 59.6278L56.4839 97.9618H100.778L122.928 59.6278L100.778 21.2938H56.4839L34.3344 59.6278Z" fill="#00DD8A"/>
<path fill-rule="evenodd" clip-rule="evenodd" d="M26.0376 59.6248L52.3756 105.147H105.052L131.39 59.6248L105.052 14.1031H52.3756L26.0376 59.6248ZM34.3344 59.6278L56.4839 97.9618H100.779L122.928 59.6278L100.779 21.2937H56.4839L34.3344 59.6278Z" fill="#00C074"/>
<path fill-rule="evenodd" clip-rule="evenodd" d="M36.8235 59.8437L57.7708 96.1811H99.6695L120.617 59.8437L99.6695 23.5062H57.7708L36.8235 59.8437ZM54.5234 59.7579L66.4985 80.5222H90.4448L102.416 59.7579L90.4448 38.9936H66.4985L54.5234 59.7579Z" fill="#0087EF"/>
<path fill-rule="evenodd" clip-rule="evenodd" d="M47.8857 59.6633L63.2468 86.4172H93.9688L109.33 59.6633L93.9688 32.9093H63.2468L47.8857 59.6633ZM54.5232 59.7579L66.4983 80.5222H90.4446L102.416 59.7579L90.4446 38.9936H66.4983L54.5232 59.7579Z" fill="#1671AF"/>
</g>
<line x1="143.425" y1="61.6155" x2="143.425" y2="116.549" stroke="#0087EF"/>
<line x1="143.425" y1="3.45056" x2="143.425" y2="61.6153" stroke="#00C074"/>
<defs>
<clipPath id="clip0_25_1323">
<rect width="170.638" height="61.6731" fill="white" transform="translate(-16 -13)"/>
</clipPath>
<clipPath id="clip1_25_1323">
<rect width="96.5198" height="22.678" fill="white" transform="translate(-9.08594 48.6731)"/>
</clipPath>
<clipPath id="clip2_25_1323">
<rect width="172.851" height="56.4185" fill="white" transform="translate(-9.3623 71.3513)"/>
</clipPath>
</defs>
</svg>
